# xmcd CD database file
#
# Track frame offsets:
#	150
#	20590
#	35910
#	53027
#	67660
#	82590
#	95977
#	114412
#	124840
#	138137
#	160070
#	173910
#	186785
#	206170
#
# Disc length: 2794 seconds
#
# Revision: 6
# Processed by: cddbd v1.5.2PL0 Copyright (c) Steve Scherf et al.
# Submitted via: CDex 1.72
#
DISCID=b90ae80e
DTITLE=Muldaur, Maria (USA-01-Richmond Woman Blues-bls) - Richland Woman Blues
DYEAR=2001
DGENRE=Blues
TTITLE0=Richland Woman Blues
TTITLE1=Grasshoppers in My Pillow
TTITLE2=It's a Blessing
TTITLE3=Me and My Chauffeur Blues
TTITLE4=Put It Right Here
TTITLE5=I'm Goin' Back Home
TTITLE6=My Man Blues
TTITLE7=In My Girlish Days
TTITLE8=Far Away Blues
TTITLE9=I Got to Move
TTITLE10=Lonesome Desert Blues
TTITLE11=Soul of a Man
TTITLE12=I Belong to That Band
TTITLE13=It's a Blessing (Reprise)
EXTD=YEAR: 2001
EXTT0=
EXTT1=
EXTT2=
EXTT3=
EXTT4=
EXTT5=
EXTT6=
EXTT7=
EXTT8=
EXTT9=
EXTT10=
EXTT11=
EXTT12=
EXTT13=
PLAYORDER=
